<?xml version="1.0" encoding="UTF-8" standalone="no"?>
<!DOCTYPE svg PUBLIC "-//W3C//DTD SVG 1.1//EN" "http://www.w3.org/Graphics/SVG/1.1/DTD/svg11.dtd">
<svg width="100%" height="100%" viewBox="0 0 1777 333" version="1.1" xmlns="http://www.w3.org/2000/svg" xmlns:xlink="http://www.w3.org/1999/xlink" xml:space="preserve" xmlns:serif="http://www.serif.com/" style="fill-rule:evenodd;clip-rule:evenodd;stroke-linejoin:round;stroke-miterlimit:2;">
    <g id="Layer-1" serif:id="Layer 1" transform="matrix(5.55556,0,0,5.55556,-444.833,-1166.83)">
        <g transform="matrix(1,0,0,1,135.985,236.618)">
            <path d="M0,6.789L-6.004,-3.611L-18.013,-3.611L-24.017,6.789L-18.013,17.188L-6.004,17.188L0,6.789ZM-21.169,-19.544C-21.875,-19.776 -22.258,-20.536 -22.025,-21.241C-21.794,-21.946 -21.034,-22.33 -20.329,-22.097C-19.105,-21.692 -17.918,-20.725 -17.004,-19.495C-16.42,-18.709 -15.936,-17.8 -15.621,-16.855C-14.612,-17.215 -13.445,-17.383 -12.009,-17.383C-10.572,-17.383 -9.405,-17.215 -8.396,-16.855C-8.081,-17.8 -7.597,-18.709 -7.013,-19.495C-6.099,-20.725 -4.912,-21.692 -3.688,-22.097C-2.983,-22.33 -2.223,-21.946 -1.991,-21.241C-1.759,-20.536 -2.143,-19.776 -2.847,-19.544C-3.541,-19.315 -4.263,-18.701 -4.859,-17.898C-5.405,-17.163 -5.825,-16.294 -6.012,-15.427L-5.944,-15.367C-4.52,-14.08 -3.424,-12.223 -1.887,-9.563C-1.852,-9.51 -1.821,-9.456 -1.793,-9.399L-0.677,-7.466L-0.68,-7.466L2.659,-1.682L2.662,-1.683L2.823,-1.404L4.096,-2.139C4.224,-2.213 4.389,-2.169 4.463,-2.042C4.489,-1.995 4.5,-1.944 4.499,-1.894L4.499,3.717C4.499,3.865 4.378,3.985 4.23,3.985C4.178,3.985 4.13,3.97 4.088,3.944L-0.774,1.137C-0.903,1.063 -0.946,0.898 -0.873,0.77C-0.848,0.729 -0.814,0.696 -0.774,0.673L0.5,-0.063L0.34,-0.338C0.344,-0.341 -3.428,-6.87 -3.771,-7.466L-20.242,-7.466L-24.671,0.203L-28.86,7.461C-29.096,7.867 -29.511,8.103 -29.948,8.128L-29.962,8.129L-29.97,8.129C-39.441,8.655 -46.071,3.949 -49.191,-1.185C-50.362,-3.111 -51.049,-5.116 -51.217,-6.952C-51.398,-8.921 -50.991,-10.718 -49.961,-12.079C-48.495,-14.015 -45.88,-15 -42.052,-14.258L-26.232,-11.19C-25.504,-11.05 -25.027,-10.347 -25.166,-9.619C-25.306,-8.891 -26.009,-8.413 -26.737,-8.553L-42.557,-11.621C-45.237,-12.141 -46.957,-11.597 -47.818,-10.461C-48.433,-9.649 -48.668,-8.501 -48.549,-7.193C-48.417,-5.752 -47.858,-4.147 -46.901,-2.571C-44.286,1.732 -38.757,5.683 -30.813,5.478L-26.436,-2.101L-23.34,-7.466L-22.176,-9.483C-20.615,-12.186 -19.511,-14.067 -18.073,-15.367L-18.005,-15.427C-18.192,-16.294 -18.612,-17.163 -19.158,-17.898C-19.754,-18.701 -20.477,-19.315 -21.169,-19.544M-28.151,9.539L-23.301,12.338C-23.173,12.413 -23.129,12.577 -23.204,12.705C-23.228,12.747 -23.262,12.78 -23.301,12.803L-24.575,13.538L-24.357,13.916C-24.361,13.918 -20.589,20.447 -20.246,21.043L-3.771,21.043L4.825,6.149C4.857,6.09 4.894,6.033 4.935,5.979L4.954,5.954L4.959,5.947L4.975,5.929L4.98,5.922L4.996,5.904L5.017,5.881L5.025,5.872L5.04,5.856L5.085,5.811C5.132,5.768 5.182,5.727 5.235,5.69L5.25,5.68L5.261,5.672L5.276,5.662L5.289,5.654L5.304,5.644L5.316,5.638L5.332,5.628L5.344,5.621L5.36,5.612L5.372,5.605L5.389,5.597L5.401,5.591L5.418,5.582L5.447,5.568L5.46,5.562L5.477,5.556C5.59,5.507 5.712,5.473 5.839,5.458L5.849,5.456L5.873,5.454L5.881,5.453L5.906,5.451L5.913,5.451L5.94,5.449L5.945,5.448L5.974,5.448L5.978,5.447L6.008,5.447L6.077,5.449L6.097,5.451C14.417,5.913 20.192,1.857 22.884,-2.571C23.841,-4.147 24.399,-5.752 24.532,-7.193C24.652,-8.501 24.416,-9.649 23.801,-10.461C22.94,-11.598 21.22,-12.141 18.54,-11.621L2.72,-8.553C1.992,-8.413 1.289,-8.891 1.149,-9.619C1.01,-10.347 1.487,-11.05 2.215,-11.19L18.035,-14.258C21.863,-15 24.478,-14.015 25.944,-12.079C26.974,-10.718 27.381,-8.921 27.2,-6.952C27.032,-5.116 26.346,-3.111 25.174,-1.185C22.144,3.802 15.801,8.386 6.761,8.161L-1.841,23.055C-2.089,23.485 -2.539,23.726 -3.002,23.726L-3.002,23.732L-8.234,23.732L-10.848,28.26C-11.219,28.901 -12.04,29.119 -12.681,28.748C-12.895,28.625 -13.062,28.45 -13.176,28.249L-15.784,23.732L-21.015,23.732C-21.559,23.732 -22.027,23.41 -22.239,22.945L-26.676,15.26L-26.678,15.261L-26.899,14.879L-28.173,15.614C-28.301,15.688 -28.465,15.643 -28.539,15.516C-28.563,15.474 -28.574,15.428 -28.574,15.383L-28.576,9.758C-28.576,9.61 -28.455,9.489 -28.307,9.489C-28.249,9.489 -28.195,9.508 -28.151,9.539M-5.345,-10.155C-6.214,-11.597 -6.951,-12.668 -7.741,-13.381C-8.75,-14.294 -9.989,-14.693 -12.009,-14.693C-14.028,-14.693 -15.267,-14.294 -16.276,-13.381C-17.066,-12.668 -17.803,-11.597 -18.672,-10.155L-5.345,-10.155Z" style="fill:rgb(216,222,42);"/>
        </g>
        <g transform="matrix(1,0,0,1,184.248,228.442)">
            <path d="M0,23.117C6.386,23.117 9.483,19.925 9.483,16.194C9.483,7.988 -3.513,10.835 -3.513,6.71C-3.513,5.3 -2.332,4.151 0.734,4.151C2.713,4.151 4.853,4.726 6.929,5.907L8.525,1.979C6.45,0.671 3.576,0 0.766,0C-5.588,0 -8.653,3.16 -8.653,6.966C-8.653,15.267 4.342,12.394 4.342,16.577C4.342,17.945 3.097,18.966 0.032,18.966C-2.651,18.966 -5.46,18.009 -7.345,16.64L-9.101,20.531C-7.121,22.063 -3.544,23.117 0,23.117M26.425,23.117C30.32,23.117 33.545,21.713 35.653,19.126L32.333,16.06C30.831,17.816 28.947,18.712 26.712,18.712C22.529,18.712 19.56,15.773 19.56,11.558C19.56,7.344 22.529,4.406 26.712,4.406C28.947,4.406 30.831,5.3 32.333,7.024L35.653,3.959C33.545,1.405 30.32,0 26.457,0C19.497,0 14.323,4.821 14.323,11.558C14.323,18.297 19.497,23.117 26.425,23.117M61.631,22.734L56.618,15.55C59.523,14.305 61.216,11.846 61.216,8.493C61.216,3.48 57.48,0.383 51.509,0.383L41.833,0.383L41.833,22.734L47.007,22.734L47.007,16.509L51.764,16.509L56.075,22.734L61.631,22.734ZM55.979,8.493C55.979,10.92 54.382,12.388 51.222,12.388L47.007,12.388L47.007,4.597L51.222,4.597C54.382,4.597 55.979,6.034 55.979,8.493M84.703,22.734L90.131,22.734L80.137,0.383L75.028,0.383L65.065,22.734L70.366,22.734L72.346,17.945L82.723,17.945L84.703,22.734ZM74.006,14.017L77.551,5.46L81.095,14.017L74.006,14.017ZM104.837,0.383L95.162,0.383L95.162,22.734L100.336,22.734L100.336,16.572L104.837,16.572C110.809,16.572 114.544,13.474 114.544,8.493C114.544,3.48 110.809,0.383 104.837,0.383M104.551,12.357L100.336,12.357L100.336,4.597L104.551,4.597C107.711,4.597 109.309,6.034 109.309,8.493C109.309,10.92 107.711,12.357 104.551,12.357M136.308,11.207C138.352,10.377 139.725,8.685 139.725,6.131C139.725,2.491 136.851,0.383 131.869,0.383L122.227,0.383L122.227,22.734L132.508,22.734C138.096,22.734 140.905,20.563 140.905,16.763C140.905,13.73 139.182,11.846 136.308,11.207M131.71,2.331C135.286,2.331 137.361,3.704 137.361,6.386C137.361,9.068 135.286,10.441 131.71,10.441L124.59,10.441L124.59,2.331L131.71,2.331ZM132.477,20.787L124.59,20.787L124.59,12.388L132.477,12.388C136.404,12.388 138.543,13.666 138.543,16.572C138.543,19.51 136.404,20.787 132.477,20.787M151.165,20.69L151.165,12.388L162.725,12.388L162.725,10.377L151.165,10.377L151.165,2.426L164.129,2.426L164.129,0.383L148.803,0.383L148.803,22.734L164.607,22.734L164.607,20.69L151.165,20.69ZM175.027,20.69L175.027,12.388L186.587,12.388L186.587,10.377L175.027,10.377L175.027,2.426L187.991,2.426L187.991,0.383L172.665,0.383L172.665,22.734L188.47,22.734L188.47,20.69L175.027,20.69ZM202.689,22.927C208.405,22.927 211.024,20.116 211.024,16.827C211.024,8.685 197.262,12.388 197.262,6.258C197.262,4.023 199.081,2.203 203.169,2.203C205.148,2.203 207.383,2.809 209.3,4.055L210.098,2.171C208.31,0.926 205.691,0.191 203.169,0.191C197.485,0.191 194.931,3.033 194.931,6.322C194.931,14.592 208.692,10.825 208.692,16.955C208.692,19.158 206.873,20.914 202.689,20.914C199.752,20.914 196.91,19.764 195.313,18.2L194.388,20.019C196.048,21.744 199.337,22.927 202.689,22.927" style="fill:rgb(216,222,42);fill-rule:nonzero;"/>
        </g>
    </g>
</svg>
